<svg xmlns="http://www.w3.org/2000/svg" width="23.28" height="20" viewBox="0 0 23.28 20">
  <metadata><?xpacket begin="﻿" id="W5M0MpCehiHzreSzNTczkc9d"?>
<x:xmpmeta xmlns:x="adobe:ns:meta/" x:xmptk="Adobe XMP Core 5.6-c140 79.160451, 2017/05/06-01:08:21        ">
   <rdf:RDF xmlns:rdf="http://www.w3.org/1999/02/22-rdf-syntax-ns#">
      <rdf:Description rdf:about=""/>
   </rdf:RDF>
</x:xmpmeta>
                                                                                                    
                                                                                                    
                                                                                                    
                                                                                                    
                                                                                                    
                                                                                                    
                                                                                                    
                                                                                                    
                                                                                                    
                                                                                                    
                                                                                                    
                                                                                                    
                                                                                                    
                                                                                                    
                                                                                                    
                                                                                                    
                                                                                                    
                                                                                                    
                                                                                                    
                                                                                                    
                           
<?xpacket end="w"?></metadata>
<defs>
    <style>
      .cls-1 {
        fill: #262626;
        fill-rule: evenodd;
      }
    </style>
  </defs>
  <path id="Cart" class="cls-1" d="M1076.42,28.777H1090a0.537,0.537,0,0,1,.57.73l-2.15,6.013a0.932,0.932,0,0,1-.84.588h-8.9a0.932,0.932,0,0,1-.84-0.588l-1.87-6.155A0.434,0.434,0,0,1,1076.42,28.777Zm12.36,12.317a1.943,1.943,0,1,0,2.03,1.942A1.991,1.991,0,0,0,1088.78,41.095Zm-8.6.025a1.943,1.943,0,1,0,2.03,1.941A1.988,1.988,0,0,0,1080.18,41.119Zm-2.44-3.035h11.88l4.76-13.078h3.7a1.1,1.1,0,1,1,0,2.2h-2.07l-4.75,13.078h-13.52A1.1,1.1,0,1,1,1077.74,38.084Z" transform="translate(-1075.94 -25)"/>
</svg>
