<?xml version="1.0" encoding="UTF-8"?>
<svg width="117px" height="50px" viewBox="0 0 117 50" version="1.1" xmlns="http://www.w3.org/2000/svg" xmlns:xlink="http://www.w3.org/1999/xlink">
    <!-- Generator: Sketch 58 (84663) - https://sketch.com -->
    <title>RS-logo Copy</title>
    <desc>Created with Sketch.</desc>
    <defs>
        <linearGradient x1="69.685822%" y1="1.85125886%" x2="50%" y2="100%" id="linearGradient-1">
            <stop stop-color="#058ED4" offset="0%"></stop>
            <stop stop-color="#002D56" offset="100%"></stop>
        </linearGradient>
        <linearGradient x1="-27.6664836%" y1="65.1719148%" x2="92.7423167%" y2="36.223651%" id="linearGradient-2">
            <stop stop-color="#016FC5" offset="0%"></stop>
            <stop stop-color="#2A9CE3" offset="55.2024407%"></stop>
            <stop stop-color="#47BBF7" offset="100%"></stop>
        </linearGradient>
        <linearGradient x1="77.9531779%" y1="2.26305985%" x2="8.46262221%" y2="100%" id="linearGradient-3">
            <stop stop-color="#72C6EC" offset="0%"></stop>
            <stop stop-color="#98D6F1" offset="55.3172832%"></stop>
            <stop stop-color="#34AAE2" offset="100%"></stop>
        </linearGradient>
        <linearGradient x1="50%" y1="0%" x2="50%" y2="100%" id="linearGradient-4">
            <stop stop-color="#FDFEFE" offset="0%"></stop>
            <stop stop-color="#DDF3FD" offset="100%"></stop>
        </linearGradient>
        <linearGradient x1="50%" y1="0%" x2="50%" y2="100%" id="linearGradient-5">
            <stop stop-color="#FDFEFE" offset="0%"></stop>
            <stop stop-color="#DDF3FD" offset="100%"></stop>
        </linearGradient>
    </defs>
    <g id="Page-1" stroke="none" stroke-width="1" fill="none" fill-rule="evenodd">
        <g id="Desktop-HD" transform="translate(-229.000000, -155.000000)" fill-rule="nonzero">
            <g id="RS-logo-Copy" transform="translate(229.000000, 155.000000)">
                <path d="M8.60919786,19.0203209 C9.61026738,18.6038759 10.3510588,17.986216 10.8445861,17.1803551 C11.3651422,16.329446 11.6294246,15.335384 11.6294246,14.2251979 C11.6288567,13.5913354 11.51844,12.9623664 11.3030759,12.3662118 C11.0848428,11.7655701 10.7294631,11.1999658 10.2459465,10.7144471 C9.76843636,10.2339337 9.13876364,9.83851123 8.37394652,9.53518717 C7.60912941,9.2318631 6.6701262,9.0776984 5.57295401,9.0776984 L0.200213904,9.0776984 C0.0900285831,9.0776984 0.000550926594,9.16672729 0,9.27691123 L0,26.1128984 C0,26.2230837 0.0890288909,26.3125614 0.199212834,26.3131123 L2.54672086,26.3131123 C2.6569048,26.3125614 2.74593507,26.2230837 2.74593369,26.1128984 L2.74593369,19.4207487 L5.80620321,19.4207487 L9.36,26.2049968 C9.39403636,26.2710674 9.46210909,26.3121112 9.53618824,26.3121112 L12.2621005,26.3121112 C12.3324289,26.3117611 12.3974165,26.2745363 12.4332985,26.2140493 C12.4691806,26.1535624 12.4706949,26.0786839 12.4372877,26.0167957 L8.60719572,19.0093091 L8.60919786,19.0203209 Z M8.75635508,14.299277 C8.75635508,15.1301647 8.5160984,15.7688471 8.02357219,16.2533647 C7.53104599,16.7378824 6.77724064,16.9801412 5.77817326,16.9801412 L2.74493262,16.9801412 L2.74493262,11.5743658 L5.72611765,11.5743658 C6.6801369,11.5743658 7.43394225,11.8146225 7.96551016,12.2921326 C8.49707807,12.7696428 8.76636578,13.4283465 8.76636578,14.3012791 L8.75635508,14.299277 Z M23.2618524,15.7007743 C22.6831042,15.1064163 21.992444,14.6324805 21.2296813,14.3062845 C20.4518503,13.9699251 19.5939337,13.7977412 18.676954,13.7977412 C17.7439572,13.7977412 16.877031,13.967923 16.0992,14.3062845 C15.321369,14.644646 14.6416428,15.1131465 14.0790417,15.7027765 C13.5152041,16.2958616 13.0655489,16.9878215 12.7526246,17.7439572 C12.4322824,18.5087743 12.2721112,19.3456684 12.2721112,20.232616 C12.2721112,21.1195636 12.4342845,21.9544556 12.7526246,22.7182717 C13.0729668,23.4890952 13.521446,24.177831 14.0790417,24.7604535 C14.6426439,25.3610952 15.3233711,25.8215872 16.0992,26.1559444 C16.8750289,26.4903016 17.7479615,26.6564791 18.676954,26.6564791 C19.5539447,26.6639319 20.4230179,26.4901173 21.2296813,26.1459337 C22.0065112,25.8105754 22.6912428,25.3420749 23.2618524,24.7514439 C23.8348613,24.1622893 24.2895521,23.4686989 24.6012834,22.708261 C24.9216257,21.9414417 25.0848,21.1045476 25.0848,20.2226053 C25.0848,19.3406631 24.9226267,18.503769 24.6012834,17.7349476 C24.2884596,16.9750854 23.8338976,16.2816915 23.2618524,15.6917647 L23.2618524,15.7007743 Z M18.6749519,24.2959572 C18.101339,24.2959572 17.5737754,24.1808342 17.1373091,23.9525904 C16.6886016,23.7257719 16.2894505,23.4120317 15.9630545,23.0296043 C15.6347037,22.6441925 15.3824342,22.2067251 15.2172578,21.7282139 C15.0478097,21.2471141 14.961486,20.740682 14.9619829,20.2306139 C14.9624332,19.7150733 15.0487033,19.2032038 15.2172578,18.7159957 C15.3781673,18.2409696 15.6271004,17.8004972 15.9510417,17.4176086 C16.271384,17.0422075 16.6658053,16.7368813 17.1262973,16.516646 C17.5867893,16.2964107 18.1073455,16.1722781 18.6759529,16.1722781 C19.2445604,16.1722781 19.7641155,16.2884021 20.2135957,16.516646 C20.6630409,16.743193 21.0626312,17.0573513 21.3888513,17.4406332 C21.7176636,17.8271764 21.9709839,18.2720149 22.1356492,18.7520342 C22.3014925,19.2305174 22.3867415,19.7332158 22.3879187,20.2396235 C22.3878083,20.753636 22.302565,21.2640811 22.1356492,21.7502374 C21.9739267,22.2259265 21.7243424,22.6670286 21.3998631,23.0506267 C21.076659,23.4320291 20.6778366,23.7422243 20.2286118,23.9616 C19.7581091,24.1938481 19.2505668,24.3049668 18.6749519,24.3049668 L18.6749519,24.2959572 Z M34.8081882,20.2376214 C34.4089609,19.9343404 33.9652542,19.6945902 33.4927829,19.526862 C32.9765751,19.3394085 32.4501719,19.1813204 31.9160984,19.0533561 C30.989108,18.8391273 30.2312984,18.6088813 29.663692,18.3696257 C29.160154,18.1694118 28.914892,17.8520727 28.914892,17.4316235 C28.914892,16.9681283 29.0950845,16.6447829 29.4654802,16.4455701 C29.865908,16.2253348 30.4285091,16.1152171 31.1132406,16.1152171 C31.7899636,16.1152171 32.3886032,16.2213305 32.8911401,16.4295529 C33.3916749,16.6297668 33.8271401,16.8980535 34.1594952,17.2003765 C34.199538,17.237416 34.2545968,17.2564364 34.3096556,17.2504299 C34.3647327,17.2458204 34.4154544,17.2186481 34.4498053,17.1753497 L35.6851251,15.6106781 C35.7511957,15.5275893 35.740184,15.407461 35.6600984,15.3373861 C35.1095102,14.8518674 34.4538096,14.4694588 33.7160214,14.2011722 C32.9782332,13.9328856 32.0992941,13.7987365 31.0872128,13.7987365 C30.4934208,13.7979586 29.902201,13.876743 29.3293348,14.0329925 C28.7839281,14.1806309 28.2660169,14.4155841 27.7956963,14.7287358 C27.3382075,15.0360642 26.9648086,15.4214759 26.6875123,15.8749604 C26.410216,16.3284449 26.2670631,16.8740278 26.2670631,17.481677 C26.2670631,18.0703059 26.3871914,18.5828535 26.6204406,19.0033027 C26.8478209,19.4170388 27.1566947,19.7803998 27.5284107,20.0714439 C27.9069871,20.3680563 28.3295114,20.6038053 28.7807487,20.7701904 C29.2282321,20.9400057 29.6872087,21.0778325 30.154216,21.182631 L31.7479187,21.5950717 C32.155354,21.7152 32.4887102,21.8493433 32.7489882,21.9934973 C32.9772321,22.1266396 33.149416,22.2757989 33.2295016,22.4339679 C33.3214381,22.6197133 33.3687426,22.8243566 33.3676492,23.0316064 C33.3676492,23.4740791 33.1674353,23.7924193 32.7219594,24.0006417 C32.2484535,24.2308877 31.6408043,24.3450096 30.9150289,24.3450096 C30.1722353,24.3450096 29.5115294,24.2228791 28.9509305,23.9826225 C28.4098946,23.7556905 27.9172084,23.4274596 27.4993797,23.0155893 C27.4615525,22.9763258 27.408695,22.9551828 27.3542246,22.9575273 C27.2997798,22.9585275 27.2480912,22.9816609 27.2110717,23.0215957 L25.8295957,24.537215 C25.7592752,24.6141245 25.7597106,24.7321163 25.8305968,24.8085048 C26.9748193,26.0398203 28.7036663,26.6644893 30.9730909,26.6644893 C31.6143211,26.6649001 32.2531544,26.5862227 32.875123,26.4302374 C33.4887786,26.2760727 34.0293561,26.035816 34.5008599,25.7214802 C34.9656251,25.4157035 35.3570402,25.0109564 35.6470845,24.5362139 C35.9343914,24.0597048 36.0795465,23.5021091 36.0795465,22.8804449 C36.0795465,22.2818053 35.9664257,21.7592471 35.7421861,21.3237818 C35.5209306,20.8993345 35.2092855,20.5285726 34.8292107,20.2376214 L34.8081882,20.2376214 Z M47.5688214,16.0261219 C47.0821374,15.3597426 46.4506355,14.812441 45.7218481,14.4254118 C44.9730481,14.024984 44.0660791,13.8227679 43.0259679,13.8227679 C42.1450267,13.8227679 41.3241497,13.9899465 40.5863615,14.3202995 C39.8485733,14.6506524 39.2048856,15.1011337 38.6673112,15.6647358 C38.1297369,16.228338 37.7082866,16.9040599 37.4139722,17.6738824 C37.1156078,18.4670129 36.9652947,19.3081552 36.9704984,20.1555337 C36.9704984,21.1135572 37.123662,22.0045091 37.425985,22.8013604 C37.728308,23.5982118 38.1647743,24.2889497 38.7273754,24.8635636 C39.2899765,25.4381775 39.9616941,25.8846545 40.7415273,26.1969882 C41.5213604,26.5093219 42.3852834,26.6674909 43.3142759,26.6674909 C44.0650781,26.6674909 44.7498096,26.5834011 45.3464471,26.4192257 C45.922062,26.2640599 46.4456214,26.0688513 46.900107,25.8386053 C47.3405775,25.6143658 47.706969,25.3751102 47.9862674,25.1298481 L48.6109348,24.5332107 C48.6806948,24.4557821 48.6793886,24.3377862 48.6079316,24.2619209 L47.3195551,22.9004663 C47.2815144,22.8604235 47.2194481,22.8404021 47.1713968,22.8384 C47.1233455,22.8363979 47.0712898,22.8634267 47.0262417,22.9054717 C46.7589561,23.2057925 46.3114781,23.5221305 45.6948193,23.846477 C45.0871701,24.1648171 44.2933219,24.3269904 43.3373005,24.3269904 C42.8707121,24.3292769 42.4081914,24.2401737 41.975846,24.0647102 C41.5520391,23.894143 41.1616458,23.6501472 40.8226139,23.3439401 C40.4877178,23.041953 40.2155861,22.6769563 40.0217583,22.2697925 C39.8515765,21.9194182 39.7484663,21.5320043 39.7134289,21.1185626 L48.7520856,21.1185626 C48.8521925,21.1185626 48.9523165,21.0184556 48.9523165,20.9183487 C48.9539091,20.0322998 48.8411926,19.149746 48.6169412,18.2925433 C48.3947037,17.4486417 48.0363209,16.6838246 47.5658182,16.0301262 L47.5688214,16.0261219 Z M43.0259679,16.1402439 C44.0270374,16.1402439 44.7618225,16.4325561 45.3024,17.0412064 C45.7949262,17.5937968 46.1032556,18.2625112 46.1893476,19.0313326 L39.7074225,19.0313326 C39.7414301,18.7051862 39.8241014,18.3859737 39.9526845,18.0843209 C40.1089931,17.7161657 40.3354376,17.3819391 40.6193968,17.1002695 C40.916673,16.8068859 41.2673478,16.5731027 41.6525005,16.4115337 C42.0873403,16.2315075 42.5543863,16.1422544 43.0249668,16.1492535 L43.0259679,16.1402439 Z M65.6941861,24.5752556 C65.5420235,24.2318888 65.4359102,23.6813005 65.433908,23.6762952 C65.4198319,23.6051615 65.368394,23.5471985 65.2994377,23.5247669 C65.2304815,23.5023354 65.154786,23.5189418 65.1015529,23.5681797 C64.8637008,23.7992038 64.5915252,23.992023 64.2946909,24.1397904 C64.037416,24.2599187 63.7010567,24.3229861 63.2936214,24.3229861 C62.813108,24.3229861 62.452723,24.1728257 62.1954481,23.8654973 C61.9351701,23.5511615 61.8020278,22.939508 61.8020278,22.0485561 L61.8020278,16.4776043 L65.0354824,16.4776043 C65.1452769,16.4770567 65.2341476,16.388186 65.2346952,16.2783914 L65.2346952,14.3763594 C65.2341476,14.2665648 65.1452769,14.1776941 65.0354824,14.1771465 L61.8020278,14.1771465 L61.8020278,10.5382588 C61.8019144,10.4701877 61.7672227,10.4068375 61.7099294,10.3700791 C61.6518674,10.3340406 61.5797904,10.3280342 61.5097155,10.3570652 L59.2372877,11.4081882 C59.1666497,11.440879 59.1213602,11.5115463 59.1211636,11.5893818 L59.1211636,14.1781476 L54.201908,14.1781476 L54.201908,10.5392599 C54.2017946,10.4711888 54.1671029,10.4078386 54.1098096,10.3710802 C54.0517476,10.3340406 53.9796706,10.3310374 53.9095957,10.3580663 L51.6371679,11.4091893 C51.5665299,11.4418801 51.5212404,11.5125473 51.5210439,11.5903829 L51.5210439,14.1791487 L49.6009925,14.1791487 C49.4911979,14.1796963 49.4023273,14.2685669 49.4017797,14.3783615 L49.4017797,16.2803936 C49.4023273,16.3901882 49.4911979,16.4790588 49.6009925,16.4796064 L51.5210439,16.4796064 L51.5210439,22.2878118 C51.5210439,23.7613861 51.8213647,24.8665668 52.4390246,25.5713198 C53.0566845,26.2880856 54.028723,26.6524749 55.3301134,26.6524749 C56.0568898,26.6524749 56.6985754,26.5523679 57.2361497,26.3221219 C57.6702477,26.1453832 58.0700404,25.8939881 58.4174118,25.5793283 C58.4868646,25.5168657 58.5038961,25.4146768 58.4584556,25.3330652 C58.4564535,25.330062 58.2462289,24.9526588 58.0840556,24.5872684 C57.970116,24.2961615 57.882995,23.9952588 57.8237775,23.688308 C57.8096344,23.6169459 57.7578946,23.5588713 57.6886323,23.5366158 C57.61937,23.5143604 57.5434859,23.5314268 57.4904214,23.5811936 C57.2201326,23.8354652 56.9498439,24.0276706 56.6825583,24.1518032 C56.4292877,24.2719316 56.0939294,24.3339979 55.684492,24.3339979 C55.2009754,24.3339979 54.8435936,24.1838374 54.5883209,23.8765091 C54.3250396,23.5601711 54.1918973,22.9485176 54.1918973,22.0595679 L54.1918973,16.4776043 L59.1111529,16.4776043 L59.1111529,22.2858096 C59.1111529,23.760385 59.4114738,24.8645647 60.0321369,25.5693176 C60.6487957,26.2860834 61.6208342,26.6504727 62.9212235,26.6504727 C63.6500021,26.6504727 64.2906866,26.5503658 64.8272599,26.3201198 C65.2614588,26.1437189 65.6610341,25.8919086 66.0075209,25.5763251 C66.07613,25.5137494 66.0927077,25.4122108 66.0475636,25.3310631 C65.913765,25.0874092 65.7895376,24.8386206 65.6751658,24.5852663 L65.6941861,24.5752556 Z M77.1774545,26.0568385 L77.1574332,25.0757904 L77.1574332,18.2484963 C77.1574332,16.8469989 76.6969412,15.7478246 75.7859679,14.9800043 C74.8890096,14.2191914 73.6436791,13.8337797 72.086015,13.8337797 C71.5075894,13.8280741 70.9298677,13.875659 70.3601711,13.9759316 C69.8616385,14.0700321 69.4091551,14.1921626 69.0157348,14.3393198 C68.6223144,14.486477 68.2679358,14.6466481 67.9706182,14.8198332 C67.7060972,14.9750743 67.453467,15.1497405 67.2148107,15.3423914 C67.1349326,15.4082515 67.1184382,15.5241466 67.1767701,15.609677 L68.2379037,17.1493219 C68.2679358,17.193369 68.3149861,17.2234011 68.3680428,17.2324107 C68.4206321,17.2415344 68.4746876,17.2292818 68.5182032,17.1983743 C68.8585668,16.9551144 69.2890267,16.7098524 69.7995722,16.4715979 C70.2930995,16.2413519 70.977831,16.1232257 71.8337455,16.1232257 C72.6976684,16.1232257 73.3854032,16.3034182 73.8759273,16.6537925 C74.3534374,16.9941561 74.5766759,17.5567572 74.5766759,18.3726289 L74.5766759,18.5728428 L74.3644492,18.5528214 L73.6637005,18.5027679 L72.8027807,18.4507123 L71.9318503,18.4246845 C70.2300321,18.4246845 68.8986096,18.8231102 67.9806289,19.6099508 C67.0546396,20.4037989 66.585138,21.4719401 66.585138,22.7893476 C66.585138,23.4920984 66.715277,24.0967444 66.9735529,24.5852663 C67.2318289,25.0737882 67.5701904,25.4862289 67.9906396,25.7885519 C68.4040813,26.0888727 68.8685775,26.3211209 69.3721155,26.453262 C69.8621367,26.5828197 70.3668609,26.6484706 70.8737198,26.6484706 C71.6557531,26.6475211 72.4304212,26.4973443 73.1561583,26.2059979 C73.7114068,25.9885674 74.2140545,25.6555164 74.6307337,25.228954 L74.6627679,26.1299166 C74.6670524,26.2369655 74.7548471,26.321672 74.8619807,26.3221219 L76.9802439,26.3221219 C77.1003722,26.3221219 77.1884663,26.222015 77.1884663,26.121908 C77.1883238,26.0990286 77.1842607,26.076343 77.1764535,26.0548364 L77.1774545,26.0568385 Z M69.3240642,21.9774802 C69.3991444,21.7312171 69.5392941,21.5039743 69.7425112,21.3037604 C69.9497326,21.0975401 70.2390417,20.9213519 70.6054332,20.7812021 C70.9718246,20.6410524 71.4733604,20.5669733 72.087016,20.5669733 L72.907893,20.5909989 L73.7127529,20.6410524 L74.3704556,20.7041198 L74.5876877,20.7341519 L74.5876877,21.9054032 C74.5876877,22.2257455 74.5025968,22.5410824 74.3374203,22.8444064 C74.1622332,23.1607444 73.9319872,23.4380406 73.6526888,23.6712898 C73.3733904,23.904539 73.037031,24.1017497 72.6516193,24.2418995 C72.2755706,24.3859428 71.8760487,24.4589226 71.4733604,24.4571617 C70.7495872,24.4571617 70.1789775,24.3049668 69.7765476,24.004646 C69.3881326,23.7043251 69.1999316,23.2898824 69.1999316,22.7112642 C69.2031493,22.4612206 69.2429465,22.2129942 69.3180578,21.974477 L69.3240642,21.9774802 Z M28.1730995,37.5070717 C27.6925861,37.0866225 27.144,36.748261 26.5413561,36.5009968 C25.9106824,36.2467251 25.2599872,36.0365005 24.6062888,35.8753283 L22.7242781,35.3577754 C22.1516663,35.1755807 21.6631444,34.9573476 21.2677219,34.6810524 C20.8672941,34.4037561 20.5369412,34.0774075 20.3167059,33.710015 C20.088462,33.3276064 19.973339,32.8691166 19.973339,32.3445561 C19.9760067,31.9739758 20.0518724,31.6075748 20.1965775,31.2664043 C20.3407316,30.9060193 20.576984,30.5786695 20.8953241,30.2903615 C21.1956449,30.010062 21.5960727,29.7818182 22.0625711,29.6096342 C22.5290695,29.4374503 23.0816599,29.3523594 23.7043251,29.3523594 C24.3269904,29.3523594 24.8855872,29.4274396 25.3681027,29.5755979 C25.8098125,29.7063691 26.2340276,29.8902405 26.6314524,30.1231829 C26.985831,30.3304043 27.2921583,30.5536428 27.5344171,30.7858909 L27.6645561,30.9140278 C27.7296257,30.9821005 27.8367401,30.9871059 27.906815,30.9220364 L28.8678417,30.0410952 C28.9379166,29.9780278 28.9429219,29.8709134 28.8808556,29.7988364 L28.7176813,29.6186439 L28.612569,29.5045219 C28.3592984,29.2372364 28.0179337,28.9739551 27.5984856,28.7206845 C27.1720299,28.4654118 26.6424642,28.2431743 26.0248043,28.0599786 C25.4241626,27.8797861 24.6713583,27.7866866 23.8224513,27.7866866 C22.8594225,27.7866866 22.0075123,27.9168257 21.2897455,28.1751016 C20.5719786,28.4333775 19.9683337,28.7757433 19.4878203,29.1961925 C19.0315169,29.5962664 18.6703459,30.0932185 18.4306909,30.6507465 C18.195372,31.2106833 18.0751918,31.8122652 18.0773134,32.4196364 C18.0773134,33.0923551 18.1974417,33.7010053 18.4296898,34.2265668 C18.6643148,34.7552476 19.0030802,35.2312215 19.425754,35.626062 C19.8844626,36.0519141 20.4104486,36.3989634 20.9824171,36.6531594 C21.6421564,36.9514136 22.3341453,37.172447 23.0446203,37.3118631 C24.5532321,37.6382118 25.6814374,38.0566588 26.4933048,38.5902289 C27.374246,39.1668449 27.820723,40.0367743 27.820723,41.1749904 C27.820723,42.2261134 27.4202952,43.0740193 26.6624856,43.6956834 C25.9216941,44.2983273 24.8905925,44.6036535 23.5952086,44.6036535 C22.9715422,44.6036535 22.3899209,44.5235679 21.8653604,44.3704043 C21.364672,44.2248624 20.8838609,44.01808 20.433831,43.7547465 C20.0176115,43.5125062 19.6300781,43.2240389 19.2785968,42.8948278 L18.7710545,42.3892877 C18.705985,42.322216 18.6008727,42.3192128 18.5307979,42.3812791 L17.4656599,43.3493134 C17.4315044,43.3801329 17.4112815,43.4234677 17.4096,43.4694417 C17.4075979,43.5154909 17.423615,43.5695487 17.4546481,43.5935743 C17.654862,43.8138096 17.8811037,44.0340449 18.1253647,44.2442695 C18.5227893,44.5946439 19.0063059,44.9249968 19.5639016,45.2233155 C20.1144898,45.5216342 20.7351529,45.7698995 21.4058695,45.9621048 C22.0665754,46.1503059 22.8213818,46.2464086 23.6482652,46.2464086 C24.5131893,46.2464086 25.330062,46.1202738 26.0758588,45.8700064 C26.8146481,45.619739 27.461339,45.2643594 27.9959102,44.8138781 C28.521579,44.3760705 28.9513117,43.8345595 29.2582588,43.2231786 C29.5585797,42.6225369 29.7107422,41.9518203 29.7107422,41.227046 C29.7107422,40.3531123 29.5705925,39.6103187 29.2983016,39.0176856 C29.0180021,38.419046 28.6375957,37.9165091 28.1690952,37.4960599 L28.1730995,37.5070717 Z M38.4130396,44.7007572 L38.3559786,44.6006503 L38.1607701,44.2702973 C38.1367444,44.2272513 38.0967016,44.1972193 38.0486503,44.1872086 C38.0005989,44.1771979 37.9505455,44.1852064 37.9115037,44.2132364 C37.7514143,44.327104 37.5815726,44.4265971 37.4039615,44.510554 C36.9594866,44.7227807 36.5400385,44.8108749 36.0855529,44.8108749 C35.3818011,44.8108749 34.8242053,44.5706182 34.4337882,44.0971123 C34.0493775,43.6386225 33.8631786,42.8657968 33.8631786,41.7365904 L33.8631786,35.0694674 L37.4219807,35.0694674 C37.5170824,35.0694674 37.5951658,34.992385 37.5951658,34.8962824 L37.5951658,33.9532749 C37.5951658,33.8581733 37.5180834,33.7800898 37.4219807,33.7800898 L33.8631786,33.7800898 L33.8631786,30.096154 C33.8631786,30.0360898 33.8331465,29.9820321 33.783093,29.9499979 C33.7330396,29.9179636 33.6709733,29.9139594 33.6179166,29.9399872 L32.2624684,30.5656556 C32.2024043,30.5956877 32.1623615,30.6657626 32.1623615,30.7228235 L32.1623615,33.7810909 L30.0300834,33.7810909 C29.9349818,33.7810909 29.8568984,33.8591743 29.8568984,33.9542759 L29.8568984,34.8972834 C29.8568984,34.992385 29.9339807,35.0704684 30.0300834,35.0704684 L32.1623615,35.0704684 L32.1623615,41.9778481 C32.1623615,43.4314011 32.4496684,44.5005433 33.0162738,45.1562439 C33.566862,45.7969283 34.4708278,46.1202738 35.7041455,46.1202738 C36.417908,46.1202738 37.0375701,46.0151615 37.5461134,45.8079401 C37.9095034,45.651658 38.2551639,45.4570142 38.577215,45.2273198 C38.6152556,45.201292 38.6402824,45.1612492 38.6472898,45.1272128 C38.6542973,45.0931765 38.6452877,45.0351144 38.6172578,44.9970738 L38.4130396,44.682738 L38.4130396,44.7007572 Z M49.6250182,35.2626738 C49.0584128,34.6820535 48.3786866,34.2155551 47.605861,33.8811979 C46.8330353,33.5468406 45.9811251,33.378661 45.0691508,33.378661 C44.1381561,33.378661 43.2672257,33.5488428 42.5064128,33.8821989 C41.7535911,34.203515 41.0733138,34.6733762 40.5062759,35.2636749 C39.945677,35.8643166 39.4992,36.5390374 39.1848642,37.2998503 C38.8705283,38.0606631 38.7083551,38.9015615 38.7083551,39.772492 C38.7083551,40.6434225 38.8685262,41.486323 39.1848642,42.2451337 C39.4960921,43.0002606 39.9448369,43.6910289 40.5082781,44.2823102 C41.0668749,44.8669348 41.7395936,45.331431 42.5104171,45.6637861 C43.2812406,45.9961412 44.136154,46.1643209 45.0731551,46.1643209 C45.9911358,46.1643209 46.8450481,45.9961412 47.6098652,45.6637861 C48.3746824,45.331431 49.0564107,44.8679358 49.6300235,44.280308 C50.1936257,43.6976856 50.631093,43.012954 50.961446,42.2441326 C51.278785,41.4813176 51.4399572,40.6494289 51.4399572,39.7714909 C51.4399572,38.8935529 51.2797861,38.0636663 50.9624471,37.2988492 C50.645108,36.5340321 50.198631,35.8503016 49.6310246,35.2636749 L49.6250182,35.2626738 Z M45.0681497,44.7928556 C44.352385,44.7928556 43.6966845,44.6446973 43.1230717,44.3553882 C42.5574674,44.0670802 42.0669433,43.6786652 41.6645134,43.2041583 C41.2620834,42.7296513 40.9467465,42.1910759 40.7415273,41.6024471 C40.535945,41.0145911 40.4310284,40.39626 40.4311955,39.773493 C40.432296,39.1467524 40.5364625,38.5244591 40.7395251,37.9315251 C40.9389912,37.3442568 41.2473649,36.7998482 41.6484963,36.3268107 C42.0547186,35.852558 42.5529622,35.4656784 43.113061,35.1895957 C43.6986866,34.8892749 44.3563893,34.7511273 45.0681497,34.7511273 C45.7799102,34.7511273 46.4366118,34.8992856 47.0102246,35.1885947 C47.5758289,35.4769027 48.0683551,35.8643166 48.4737882,36.3398246 C48.8792214,36.8153326 49.190554,37.3579123 49.3947722,37.9595551 C49.5972502,38.5422737 49.701447,39.154599 49.7031016,39.7714909 C49.7031016,40.3961583 49.5989904,41.0148193 49.3947722,41.6114567 C49.1998947,42.201252 48.8918165,42.7473597 48.4878032,43.2191743 C48.0812871,43.6930151 47.582663,44.0792443 47.0222374,44.3543872 C46.4446203,44.654708 45.7859166,44.7928556 45.0661476,44.7928556 L45.0681497,44.7928556 Z M59.3804406,33.4867765 C58.8398631,33.4867765 58.349339,33.5538481 57.9188791,33.6869904 C57.4724021,33.8301433 57.0909947,34.0013262 56.7876706,34.1955337 C56.0328642,34.6760471 55.4662588,35.2586695 54.8856385,36.144616 L54.7504941,36.3448299 L54.648385,33.9442652 C54.6443807,33.8521668 54.5682995,33.7790888 54.4762011,33.7790888 L53.2248642,33.7790888 C53.178815,33.7790888 53.1247572,33.7991102 53.1017326,33.8311444 C53.078708,33.8631786 53.0516791,33.9092278 53.0516791,33.955277 L53.0616898,34.6960684 L53.0616898,45.5937112 C53.0616898,45.6888128 53.1387722,45.7668963 53.2348749,45.7668963 L54.5883209,45.7668963 C54.6834225,45.7668963 54.7615059,45.6898139 54.7615059,45.5937112 L54.7615059,40.2249754 C54.7615059,39.5802866 54.8285775,38.9396021 54.9617198,38.3199401 C55.1018695,37.6772535 55.325108,37.1016385 55.627431,36.6101134 C55.9357604,36.0975658 56.362216,35.6711102 56.8957861,35.3417583 C57.4293561,35.0124064 58.0950674,34.8462289 58.8779037,34.8462289 C59.9150118,34.8462289 60.739893,35.1695743 61.3305241,35.8072556 C61.9071401,36.4379294 62.2014545,37.4089668 62.2014545,38.6903358 L62.2014545,45.5957134 C62.2014545,45.690815 62.2785369,45.7688984 62.3746396,45.7688984 L63.7260834,45.7688984 C63.821185,45.7688984 63.8992684,45.691816 63.8992684,45.5957134 L63.8992684,38.4881198 C63.8992684,36.9224471 63.5238674,35.6851251 62.7830759,34.7821604 C62.049292,33.897215 60.9330995,33.4667551 59.3744342,33.4667551 L59.3804406,33.4867765 Z M77.227508,37.7893733 C77.0042695,36.9484749 76.650892,36.187662 76.176385,35.5289583 C75.7008453,34.8776047 75.0828201,34.3434667 74.3694545,33.9672898 C73.6456813,33.580877 72.7547294,33.3846674 71.7226267,33.3846674 C70.8436877,33.3846674 70.0348235,33.5488428 69.3150545,33.8721882 C68.6036992,34.1864027 67.9606318,34.636652 67.4220321,35.1976043 C66.8806126,35.7700002 66.4598305,36.4454303 66.1847102,37.1837262 C65.8870045,37.9773556 65.7370437,38.8187647 65.7422374,39.6663786 C65.7422374,40.6324107 65.8954011,41.5283679 66.1977241,42.3292235 C66.4785234,43.0884515 66.911886,43.7821042 67.4710845,44.3674011 C68.0156663,44.9300021 68.6863829,45.3704727 69.4552043,45.6687914 C70.2240257,45.9671102 71.0909519,46.1332877 72.0279529,46.1332877 C72.7937711,46.1332877 73.4845091,46.0501989 74.0801455,45.8870246 C74.6757818,45.7238503 75.2043465,45.5266396 75.6518246,45.2983957 C76.0862888,45.0781604 76.4526802,44.8479144 76.7129583,44.610661 L76.9632257,44.3864214 C76.997262,44.3543872 77.0182845,44.3113412 77.0202866,44.266293 C77.0222888,44.2212449 77.0052706,44.1741947 76.9732364,44.1401583 L76.3255444,43.4554267 C76.2634781,43.3893561 76.161369,43.3823487 76.0912941,43.4394096 C75.7769583,43.6946824 75.3855401,43.9419465 74.895016,44.1972193 C74.1502203,44.5926417 73.1931979,44.7918545 72.0549818,44.7918545 C71.4688027,44.7934265 70.8878544,44.681588 70.344154,44.4625027 C69.810584,44.2422674 69.3290695,43.9419465 68.9146267,43.5665455 C68.4943205,43.1857716 68.1522522,42.7267336 67.9075508,42.2151016 C67.6525693,41.7001776 67.5131733,41.1357603 67.4991144,40.5613348 L67.4850995,40.1649112 L77.3826738,40.1649112 C77.4297241,40.1649112 77.4757733,40.1448898 77.5078075,40.1108535 C77.5398417,40.0768171 77.557861,40.0307679 77.5548578,39.9827166 C77.520379,39.2396928 77.4103618,38.5021078 77.226507,37.7813647 L77.227508,37.7893733 Z M71.7236278,34.7000727 C72.9669561,34.7000727 73.9510075,35.093493 74.6467508,35.8693219 C75.3244749,36.6321369 75.7078845,37.5591273 75.7879701,38.6242652 L75.8180021,39.0367059 L67.4720856,39.0367059 L67.4901048,38.6362781 C67.5105333,38.1312458 67.6231721,37.6342102 67.8224599,37.1697112 C68.0214731,36.6994081 68.3101459,36.2723492 68.6723679,35.9123679 C69.0347551,35.5479786 69.4772278,35.251662 69.9857711,35.0314267 C70.4943144,34.8111914 71.078939,34.6990717 71.7136171,34.6990717 L71.7236278,34.7000727 Z" id="Shape" fill="#231F1F"></path>
                <g id="Group" transform="translate(85.090909, 0.000000)">
                    <path d="M29.2312299,43.7297198 C29.4454588,43.7297198 29.6556834,43.7847786 29.8599016,43.8948963 C30.0641198,44.0050139 30.2232898,44.1631829 30.3374118,44.3674011 C30.4515337,44.5716193 30.5075936,44.7878503 30.5075936,45.0080856 C30.5073228,45.2309405 30.4493847,45.4499327 30.3394139,45.6437647 C30.2303687,45.8434888 30.0664019,46.007803 29.8669091,46.1172706 C29.663692,46.2293904 29.4524663,46.2874524 29.2302289,46.2874524 C29.0079914,46.2874524 28.7967658,46.2313925 28.5935487,46.1172706 C28.3936863,46.0079556 28.2293578,45.8436271 28.1200428,45.6437647 C28.0069219,45.4405476 27.949861,45.2293219 27.949861,45.0080856 C27.9501794,44.783264 28.009186,44.5624206 28.1210439,44.3674011 C28.2313997,44.1668649 28.397641,44.0027103 28.5995551,43.8948963 C28.8037733,43.7947893 29.0139979,43.7297198 29.2282267,43.7297198 L29.2312299,43.7297198 Z M29.2312299,43.9419465 C29.0510374,43.9419465 28.8768513,43.9879957 28.7066695,44.0800941 C28.5382975,44.1703257 28.3995904,44.3072947 28.3072428,44.4745155 C28.2136063,44.6371731 28.1639259,44.8214045 28.1630888,45.0090866 C28.1634199,45.1948621 28.2120623,45.3773576 28.3042396,45.5386524 C28.3983401,45.7088342 28.5304813,45.8389733 28.699662,45.9330738 C29.0285219,46.1205861 29.4319359,46.1205861 29.7607957,45.9330738 C29.9273519,45.841775 30.0644975,45.7049767 30.1562182,45.5386524 C30.2493176,45.3684706 30.2963679,45.1932834 30.2963679,45.0080856 C30.2958355,44.8204935 30.2465017,44.6362679 30.153215,44.4735144 C30.0615999,44.306084 29.9231366,44.1690123 29.7547893,44.079093 C29.5946487,43.9897858 29.4145849,43.9422737 29.2312299,43.9409455 L29.2312299,43.9419465 Z M28.670631,45.7158417 L28.670631,44.3403722 L29.1431358,44.3403722 C29.2611825,44.3351524 29.3793343,44.3479803 29.4935102,44.3784128 C29.5642993,44.4025596 29.6251638,44.4493513 29.6666952,44.5115551 C29.708236,44.570442 29.7306085,44.6407057 29.7307636,44.7127701 C29.7307636,44.812877 29.6947251,44.9009711 29.6236492,44.9750503 C29.5525733,45.0491294 29.4564706,45.0911743 29.3373433,45.100184 C29.3805154,45.1171958 29.4202106,45.141963 29.4544684,45.173262 C29.5095273,45.2273198 29.5776,45.3184171 29.6576856,45.4455529 L29.8248642,45.7158417 L29.5545754,45.7158417 L29.4324449,45.4986096 C29.3363422,45.3284278 29.2592599,45.2213134 29.2001968,45.1782674 C29.160154,45.1482353 29.1000898,45.130216 29.0230075,45.130216 L28.8928684,45.130216 L28.8928684,45.7148406 L28.6726332,45.7148406 L28.670631,45.7158417 Z M28.8908663,44.942015 L29.1611551,44.942015 C29.2912941,44.942015 29.3773861,44.9219936 29.4244364,44.8839529 C29.4714866,44.8459123 29.4945112,44.7938567 29.4945112,44.7317904 C29.4945112,44.6917476 29.4845005,44.654708 29.4604749,44.6316834 C29.4364492,44.6086588 29.4064171,44.5756235 29.3663743,44.5596064 C29.3263316,44.5435893 29.2522524,44.5355807 29.1441369,44.5355807 L28.8918674,44.5355807 L28.8918674,44.9510246 L28.8908663,44.942015 Z" id="Shape" fill="#000000"></path>
                    <path d="M0.320342246,46.4816599 C0.552590374,48.4908064 2.79899037,49.204569 4.47678289,49.5449326 L5.18754225,49.6810781 C6.39883636,49.9073198 7.21671016,49.8662759 7.59811765,49.8212278 L8.06461604,49.7571594 L12.1690011,49.1685305 L18.8441326,48.283585 L20.8692963,48.0052877 C21.3017452,47.9415647 21.7260091,47.8311353 22.1346481,47.6759358 C23.5281369,47.1413647 24.9026053,46.224385 25.7955594,45.0070845 L29.0490353,40.522293 L29.5826053,39.7744941 L30.4184984,38.621262 C30.6187123,38.303923 30.815923,37.9125048 30.8189262,37.9085005 L31.2674053,36.8113283 C31.5306866,36.0104727 31.7309005,35.179585 31.7829561,34.3336813 C31.8630417,33.0182759 31.6027636,31.6608257 31.4766289,30.3614374 L30.1872513,17.1673412 L30.1121711,16.5987337 C30.0691251,16.3124278 29.8859294,15.2322738 29.3093134,13.3452578 L28.1360599,9.86554011 L27.2350973,7.50601925 L26.2860834,5.13848984 C25.7405005,3.93220107 24.854554,3.03624385 24.4841583,2.66584813 C23.5031102,1.70882567 22.3658952,0.533570053 20.9533861,0.288308021 C20.5229262,0.213227807 20.0904642,0.258275936 19.6780235,0.39542246 L19.1504599,0.591632086 L16.7699166,1.46056043 L15.4064599,1.96610053 C13.8447914,2.54972406 12.3031444,3.75801497 11.376154,5.1464984 L1.94007273,18.8911829 C1.8259508,19.0613647 1.68379893,19.2765947 1.47257326,19.699046 C1.39674281,19.8511242 1.32530363,20.0053527 1.25834439,20.1615401 L1.06013262,20.650062 C0.790771047,21.3343367 0.600012297,22.0469953 0.491525134,22.7743316 C0.464727451,22.9633685 0.445358537,23.1533842 0.433463102,23.3439401 L0.426455615,23.5541647 C0.421450267,23.6402567 0.426455615,23.7263487 0.425454545,23.8114396 L0.360385027,43.7086973 C0.355379679,44.6096599 0.205219251,45.5786952 0.317339037,46.483662" id="Path" fill="url(#linearGradient-1)"></path>
                    <path d="M1.37146524,47.9211979 C1.48108369,47.961964 1.59546641,47.9885411 1.71182888,48.0002824 C1.83393036,48.0122177 1.957056,48.0085172 2.07822032,47.9892706 L6.01042139,47.3706096 L8.53912299,46.9942075 L13.6105412,46.2594225 L15.7528299,45.9390802 C16.1062075,45.8850225 16.4996278,45.7588877 16.906062,45.5837005 C17.3124963,45.4085134 17.7369497,45.173262 18.144385,44.9079786 C18.9202139,44.3994353 19.6660107,43.7767701 20.2085904,43.0199615 L21.7762652,40.8416342 L22.4439786,39.9186481 L23.3519487,38.6593027 L24.0226652,37.7052834 L24.1828364,37.4780406 L25.0397519,36.3067893 C25.2850139,35.9664257 25.516261,35.5499807 25.7204791,35.0904898 C25.9246973,34.6309989 26.106892,34.1324663 26.251046,33.623923 C26.3935051,33.1300327 26.5002279,32.6265284 26.5703872,32.1173134 C26.6354567,31.6317947 26.6564791,31.1733048 26.6224428,30.7758802 L25.2079316,13.4143316 C25.1398588,12.5704299 24.9076107,11.4722567 24.5872684,10.2859893 L23.4800856,6.68213904 L21.6911743,1.75988021 C21.5880642,1.47958075 21.4829519,1.19928128 21.3408,0.939003209 C21.2767316,0.824881283 21.210661,0.721771123 21.1355807,0.636680214 C21.0605005,0.551589305 20.981416,0.482515508 20.8933219,0.43646631 C20.8015195,0.384577608 20.7027397,0.346144506 20.6000086,0.322344385 C20.4938952,0.297317647 20.3797733,0.284303743 20.2596449,0.284303743 C20.1339044,0.284303743 20.0085097,0.297511148 19.8852449,0.322344385 C19.7551059,0.347371123 19.6219636,0.384410695 19.4848171,0.435465241 L17.9101348,1.0180877 L16.6547936,1.46856898 L15.1031358,2.04318289 C14.4274139,2.29845561 13.8087529,2.71790374 13.2431487,3.1593754 C12.9214212,3.41070654 12.6136361,3.67939193 12.3211636,3.96423529 C12.0328556,4.24453476 11.7725775,4.53484492 11.5533433,4.81514439 L11.4532364,4.93527273 L11.3661433,5.05940535 L1.8820107,18.8481369 C1.68379893,19.1344428 1.49359572,19.4808128 1.31940963,19.857215 C0.973300435,20.6015907 0.713663328,21.3831891 0.545582888,22.1867037 C0.465497326,22.5801241 0.405433155,22.9805519 0.405433155,23.3819807 L0.405433155,23.5661775 L0.405433155,23.7513754 L0.404432086,23.9375743 L0.403431016,24.1217711 L0.265220856,46.0051508 C0.264282353,46.1613176 0.275294118,46.3114781 0.298318717,46.4556321 C0.320568302,46.5942267 0.355073703,46.7305732 0.401428877,46.8630674 C0.483795555,47.1075282 0.614529105,47.3329074 0.785839572,47.5257754 C0.943007487,47.6999615 1.1362139,47.8421134 1.35845134,47.9262032 L1.37146524,47.9211979 Z" id="Path" fill="url(#linearGradient-2)"></path>
                    <path d="M23.9085433,13.0839786 L25.2699979,29.7818182 C25.3020321,30.1652278 25.2399658,31.3294717 25.1799016,31.7979722 C25.1198374,32.2664727 25.0117219,32.7589989 24.8715722,33.2475209 C24.7314225,33.7360428 24.5582374,34.2185583 24.3710374,34.6570267 C24.1838374,35.0954952 23.9505882,35.4979251 23.7153369,35.8262759 L22.0936043,38.0906952 L19.0703743,42.2951872 C18.5498182,43.0259679 17.8320513,43.6236064 17.0852535,44.1121283 C16.6918332,44.3694032 16.2864,44.5906396 15.8839701,44.7628235 C15.4815401,44.9350075 15.1131465,45.0631444 14.7727829,45.1051893 L0.800855615,47.5207701 C0.957071897,47.6979892 1.15340198,47.835283 1.37346738,47.9211979 C1.48158289,47.9612406 1.59570481,47.9882695 1.71383102,48.0012834 C1.8359325,48.0132188 1.95905814,48.0095183 2.08022246,47.9902717 L6.01242353,47.3726118 L8.54112513,46.9962096 L13.6135444,46.2604235 L15.7558332,45.9400813 C16.1092107,45.8850225 16.5016299,45.7598888 16.9090652,45.5837005 C17.3165005,45.4075123 17.7399529,45.173262 18.1473882,44.9079786 C18.9242182,44.4004364 19.6690139,43.7767701 20.2115936,43.0199615 L21.7792684,40.8416342 L22.4469818,39.9186481 L23.3549519,38.6593027 L24.0256684,37.7062845 L24.1858396,37.4760385 L24.3520171,37.2497968 L25.0527658,36.3047872 C25.2980278,35.9644235 25.5292749,35.5479786 25.733493,35.0884877 C25.945254,34.6128634 26.1228922,34.1227694 26.265061,33.6219209 C26.4075201,33.1280305 26.5142429,32.6245262 26.5844021,32.1153112 C26.6494717,31.6297925 26.6704941,31.1713027 26.6364578,30.7738781 L25.2229476,13.4123294 C25.1548749,12.5684278 24.9226267,11.4682524 24.6042866,10.2829861 L23.4971037,6.67913583 L21.7081925,1.75687701 C21.6050824,1.47657754 21.4979679,1.19627807 21.355816,0.936 C21.29795,0.828459698 21.2291821,0.727152878 21.1505968,0.633677005 C21.0775187,0.547585027 20.9974332,0.480513369 20.9103401,0.433463102 C20.8185377,0.3815744 20.7197578,0.343141297 20.6170267,0.319341176 C20.5054395,0.293456897 20.3912115,0.280690245 20.2766631,0.281279649 C21.2896868,3.54730371 22.305439,6.81245993 23.3239187,10.0767658 C23.6292449,11.217985 23.8544856,12.2741134 23.9195551,13.0859807 L23.9085433,13.0839786 Z" id="Path" fill="url(#linearGradient-3)"></path>
                    <path d="M25.4602011,16.4555807 L25.2299551,13.4123294 C25.2299551,13.4083251 25.2119358,13.4023187 25.2119358,13.3973134 C11.9137283,16.1002011 3.41264599,22.8644278 0.405433155,26.2350289 L0.400427807,27.013861 C3.50374332,23.9055401 13.7186567,17.5777797 25.4622032,16.4555807 M26.308107,26.6044235 L26.2049968,25.4862289 C12.4903444,27.5304128 3.18039786,33.8431572 0.337360428,36.5720727 L0.331354011,37.5280941 C3.03424171,35.1625668 13.4473668,28.9859679 26.3952,27.9428535 C26.3591615,27.5053861 26.3451465,27.0639144 26.308107,26.6044235" id="Shape" fill="#2978C8"></path>
                    <path d="M25.4902332,16.8179679 L25.2599872,14.0009583 C11.7455487,16.7058481 3.3565861,23.5471572 0.398425668,26.9017412 L0.393420321,27.6505412 C3.31954652,24.5672471 11.2069733,18.7970824 25.4902332,16.818969" id="Path" fill="url(#linearGradient-4)"></path>
                </g>
                <path d="M111.376993,26.5984171 L111.338952,26.1309176 C96.8304513,28.2952299 88.1371636,34.4898481 85.4252663,37.1827251 L85.4192599,38.1137198 C87.9369497,35.8883422 97.4461091,30.4655487 111.577206,29.0640513 L111.376993,26.596415" id="Path" fill="url(#linearGradient-5)"></path>
            </g>
        </g>
    </g>
</svg>